<svg width="32" height="33" viewBox="0 0 32 33" fill="none" xmlns="http://www.w3.org/2000/svg">
<path d="M28 16.5C28 16.7652 27.8946 17.0196 27.7071 17.2071C27.5196 17.3946 27.2652 17.5 27 17.5H5C4.73478 17.5 4.48043 17.3946 4.29289 17.2071C4.10536 17.0196 4 16.7652 4 16.5C4 16.2348 4.10536 15.9804 4.29289 15.7929C4.48043 15.6054 4.73478 15.5 5 15.5H27C27.2652 15.5 27.5196 15.6054 27.7071 15.7929C27.8946 15.9804 28 16.2348 28 16.5ZM5 9.5H27C27.2652 9.5 27.5196 9.39464 27.7071 9.20711C27.8946 9.01957 28 8.76522 28 8.5C28 8.23478 27.8946 7.98043 27.7071 7.79289C27.5196 7.60536 27.2652 7.5 27 7.5H5C4.73478 7.5 4.48043 7.60536 4.29289 7.79289C4.10536 7.98043 4 8.23478 4 8.5C4 8.76522 4.10536 9.01957 4.29289 9.20711C4.48043 9.39464 4.73478 9.5 5 9.5ZM27 23.5H5C4.73478 23.5 4.48043 23.6054 4.29289 23.7929C4.10536 23.9804 4 24.2348 4 24.5C4 24.7652 4.10536 25.0196 4.29289 25.2071C4.48043 25.3946 4.73478 25.5 5 25.5H27C27.2652 25.5 27.5196 25.3946 27.7071 25.2071C27.8946 25.0196 28 24.7652 28 24.5C28 24.2348 27.8946 23.9804 27.7071 23.7929C27.5196 23.6054 27.2652 23.5 27 23.5Z" fill="#343330"/>
</svg>
